# xmcd
#
# Track frame offsets:
#	150
#	12218
#	21065
#	32751
#	46087
#	53569
#	65931
#	75758
#	86478
#	98609
#	108430
#	118318
#	127500
#	139290
#	149469
#	160887
#	171684
#	182081
#	196151
#	212339
#	223353
#	239641
#	252550
#	267418
#	278555
#	288405
#	300216
#	311250
#	324053
#	333991
#	343786
#
# Disc length: 4740 seconds
#
# Revision: 1
# Processed by: cddbd v1.5.2PL0 Copyright (c) Steve Scherf et al.
# Submitted via: EasyCDDAExtractor 10.0.2.1
#
DISCID=b912821f
DTITLE=Charlie Walker - Pick Me Up On Your Way Down - CD4
DYEAR=1999
DGENRE=Country
TTITLE0=The Way To Say Goodbye
TTITLE1=Mr. Cool
TTITLE2=Don't Squeeze My Sharmon
TTITLE3=Moffett, Oklahoma
TTITLE4=The Tail's Been Waggin' The Dog Too Long
TTITLE5=Tonight, We're Calling It A Day
TTITLE6=Pistol Packin' Mama
TTITLE7=Fast Women, Slow Horses And Wine
TTITLE8=Here's To The Girls
TTITLE9=I Wouldn't Take Her To A Dogfight
TTITLE10=Sweetheart Of The Year
TTITLE11=The One Rose (That's Left In My Heart)
TTITLE12=A Bad Girl
TTITLE13=When My Conscience Hurts The Most
TTITLE14=Truck Drivin' Cat With Nine Wives
TTITLE15=A Honky Tonk In Dallas
TTITLE16=San Diego
TTITLE17=There Is A Fountain
TTITLE18=What A Friend We Have In Jesus
TTITLE19=Leaning On The Everlasting Arms
TTITLE20=Softly And Tenderly
TTITLE21=This World Is Not My Home
TTITLE22=Precious Memories
TTITLE23=I'll Fly Away
TTITLE24=Gathering Flowers For The Master's Bouquet
TTITLE25=The Great Speckled Bird
TTITLE26=On The Wings Of A Dove
TTITLE27=He Is My Everything
TTITLE28=Honky Tonk Season
TTITLE29=Till Something Better Comes Along
TTITLE30=Too Many Nights In Too Many Arms
EXTD=
EXTT0=
EXTT1=
EXTT2=
EXTT3=
EXTT4=
EXTT5=
EXTT6=
EXTT7=
EXTT8=
EXTT9=
EXTT10=
EXTT11=
EXTT12=
EXTT13=
EXTT14=
EXTT15=
EXTT16=
EXTT17=
EXTT18=
EXTT19=
EXTT20=
EXTT21=
EXTT22=
EXTT23=
EXTT24=
EXTT25=
EXTT26=
EXTT27=
EXTT28=
EXTT29=
EXTT30=
PLAYORDER=
